<svg xmlns="http://www.w3.org/2000/svg" viewBox="0 0 32 32" fill="none">
  <rect width="32" height="32" rx="8" fill="#5f7a5f"/>
  <path d="M16 6C16 6 9 10 9 18C9 23 12 26 16 26C20 26 23 23 23 18C23 10 16 6 16 6Z" fill="white" opacity="0.3"/>
  <path d="M16 6C16 6 9 10 9 18C9 23 12 26 16 26C20 26 23 23 23 18C23 10 16 6 16 6Z" stroke="white" stroke-width="1.5" stroke-linecap="round" stroke-linejoin="round"/>
  <path d="M16 26V14" stroke="white" stroke-width="1.5" stroke-linecap="round"/>
  <path d="M13 17L16 14L19 17" stroke="white" stroke-width="1.5" stroke-linecap="round" stroke-linejoin="round"/>
</svg>
